<mxfile host="app.diagrams.net" modified="2023-10-17T09:19:58.121Z" agent="Mozilla/5.0 (Windows NT 10.0; Win64; x64) AppleWebKit/537.36 (KHTML, like Gecko) Chrome/118.0.0.0 Safari/537.36" etag="D207jtpmQ-BHLfeUHi77" version="22.0.4" type="github">
  <diagram id="C5RBs43oDa-KdzZeNtuy" name="Page-1">
    <mxGraphModel dx="2952" dy="1680" grid="1" gridSize="10" guides="1" tooltips="1" connect="1" arrows="1" fold="1" page="1" pageScale="1" pageWidth="827" pageHeight="1169" math="0" shadow="0">
      <root>
        <mxCell id="WIyWlLk6GJQsqaUBKTNV-0" />
        <mxCell id="WIyWlLk6GJQsqaUBKTNV-1" parent="WIyWlLk6GJQsqaUBKTNV-0" />
        <mxCell id="WIyWlLk6GJQsqaUBKTNV-2" value="" style="rounded=0;html=1;jettySize=auto;orthogonalLoop=1;fontSize=11;endArrow=block;endFill=0;endSize=8;strokeWidth=1;shadow=0;labelBackgroundColor=none;edgeStyle=orthogonalEdgeStyle;" parent="WIyWlLk6GJQsqaUBKTNV-1" source="WIyWlLk6GJQsqaUBKTNV-3" edge="1">
          <mxGeometry relative="1" as="geometry">
            <mxPoint x="220" y="160" as="targetPoint" />
          </mxGeometry>
        </mxCell>
        <mxCell id="WIyWlLk6GJQsqaUBKTNV-3" value="Login" style="rounded=1;whiteSpace=wrap;html=1;fontSize=12;glass=0;strokeWidth=1;shadow=0;" parent="WIyWlLk6GJQsqaUBKTNV-1" vertex="1">
          <mxGeometry x="175" y="90" width="90" height="30" as="geometry" />
        </mxCell>
        <mxCell id="WIyWlLk6GJQsqaUBKTNV-4" value="No" style="rounded=0;html=1;jettySize=auto;orthogonalLoop=1;fontSize=11;endArrow=block;endFill=0;endSize=8;strokeWidth=1;shadow=0;labelBackgroundColor=none;edgeStyle=orthogonalEdgeStyle;" parent="WIyWlLk6GJQsqaUBKTNV-1" source="WIyWlLk6GJQsqaUBKTNV-6" target="WIyWlLk6GJQsqaUBKTNV-10" edge="1">
          <mxGeometry y="20" relative="1" as="geometry">
            <mxPoint as="offset" />
          </mxGeometry>
        </mxCell>
        <mxCell id="WIyWlLk6GJQsqaUBKTNV-5" value="Yes" style="edgeStyle=orthogonalEdgeStyle;rounded=0;html=1;jettySize=auto;orthogonalLoop=1;fontSize=11;endArrow=block;endFill=0;endSize=8;strokeWidth=1;shadow=0;labelBackgroundColor=none;entryX=0.5;entryY=0;entryDx=0;entryDy=0;exitX=1;exitY=0.5;exitDx=0;exitDy=0;" parent="WIyWlLk6GJQsqaUBKTNV-1" source="WIyWlLk6GJQsqaUBKTNV-6" target="l1NlXtUrIdAd-0wigVET-13" edge="1">
          <mxGeometry y="10" relative="1" as="geometry">
            <mxPoint as="offset" />
            <mxPoint x="200" y="390.7399999999999" as="sourcePoint" />
            <mxPoint x="475.6" y="420" as="targetPoint" />
          </mxGeometry>
        </mxCell>
        <mxCell id="WIyWlLk6GJQsqaUBKTNV-6" value="did you click register?" style="rhombus;whiteSpace=wrap;html=1;shadow=0;fontFamily=Helvetica;fontSize=12;align=center;strokeWidth=1;spacing=6;spacingTop=-4;" parent="WIyWlLk6GJQsqaUBKTNV-1" vertex="1">
          <mxGeometry x="170" y="350" width="100" height="80" as="geometry" />
        </mxCell>
        <mxCell id="WIyWlLk6GJQsqaUBKTNV-8" value="No" style="rounded=0;html=1;jettySize=auto;orthogonalLoop=1;fontSize=11;endArrow=block;endFill=0;endSize=8;strokeWidth=1;shadow=0;labelBackgroundColor=none;edgeStyle=orthogonalEdgeStyle;" parent="WIyWlLk6GJQsqaUBKTNV-1" source="WIyWlLk6GJQsqaUBKTNV-10" target="WIyWlLk6GJQsqaUBKTNV-11" edge="1">
          <mxGeometry x="-0.1489" y="10" relative="1" as="geometry">
            <mxPoint as="offset" />
          </mxGeometry>
        </mxCell>
        <mxCell id="WIyWlLk6GJQsqaUBKTNV-10" value="did you click login?" style="rhombus;whiteSpace=wrap;html=1;shadow=0;fontFamily=Helvetica;fontSize=12;align=center;strokeWidth=1;spacing=6;spacingTop=-4;" parent="WIyWlLk6GJQsqaUBKTNV-1" vertex="1">
          <mxGeometry x="170" y="480" width="100" height="80" as="geometry" />
        </mxCell>
        <mxCell id="WIyWlLk6GJQsqaUBKTNV-11" value="Login" style="rounded=1;whiteSpace=wrap;html=1;fontSize=12;glass=0;strokeWidth=1;shadow=0;" parent="WIyWlLk6GJQsqaUBKTNV-1" vertex="1">
          <mxGeometry x="160" y="1030" width="120" height="40" as="geometry" />
        </mxCell>
        <mxCell id="l1NlXtUrIdAd-0wigVET-1" value="Display login and register buttons" style="shape=parallelogram;perimeter=parallelogramPerimeter;whiteSpace=wrap;html=1;fixedSize=1;" parent="WIyWlLk6GJQsqaUBKTNV-1" vertex="1">
          <mxGeometry x="135" y="160" width="170" height="50" as="geometry" />
        </mxCell>
        <mxCell id="l1NlXtUrIdAd-0wigVET-5" value="&lt;font style=&quot;font-size: 11px;&quot;&gt;user clicks one of the buttons&lt;/font&gt;" style="rounded=1;whiteSpace=wrap;html=1;" parent="WIyWlLk6GJQsqaUBKTNV-1" vertex="1">
          <mxGeometry x="140" y="250" width="160" height="50" as="geometry" />
        </mxCell>
        <mxCell id="l1NlXtUrIdAd-0wigVET-9" value="" style="rounded=0;html=1;jettySize=auto;orthogonalLoop=1;fontSize=11;endArrow=block;endFill=0;endSize=8;strokeWidth=1;shadow=0;labelBackgroundColor=none;edgeStyle=orthogonalEdgeStyle;entryX=0.531;entryY=0;entryDx=0;entryDy=0;entryPerimeter=0;" parent="WIyWlLk6GJQsqaUBKTNV-1" edge="1">
          <mxGeometry relative="1" as="geometry">
            <mxPoint x="220" y="210" as="sourcePoint" />
            <mxPoint x="219.97999999999993" y="250" as="targetPoint" />
            <Array as="points">
              <mxPoint x="230" y="210" />
              <mxPoint x="220" y="210" />
            </Array>
          </mxGeometry>
        </mxCell>
        <mxCell id="l1NlXtUrIdAd-0wigVET-12" value="" style="rounded=0;html=1;jettySize=auto;orthogonalLoop=1;fontSize=11;endArrow=block;endFill=0;endSize=8;strokeWidth=1;shadow=0;labelBackgroundColor=none;edgeStyle=orthogonalEdgeStyle;exitX=0.5;exitY=1;exitDx=0;exitDy=0;" parent="WIyWlLk6GJQsqaUBKTNV-1" source="l1NlXtUrIdAd-0wigVET-5" edge="1">
          <mxGeometry relative="1" as="geometry">
            <mxPoint x="220.02" y="290" as="sourcePoint" />
            <mxPoint x="220" y="350" as="targetPoint" />
            <Array as="points" />
          </mxGeometry>
        </mxCell>
        <mxCell id="l1NlXtUrIdAd-0wigVET-13" value="Input email,&lt;br&gt;password1,&lt;br&gt;password2" style="shape=parallelogram;perimeter=parallelogramPerimeter;whiteSpace=wrap;html=1;fixedSize=1;" parent="WIyWlLk6GJQsqaUBKTNV-1" vertex="1">
          <mxGeometry x="400" y="420" width="150" height="50" as="geometry" />
        </mxCell>
        <mxCell id="l1NlXtUrIdAd-0wigVET-24" value="No" style="rounded=0;html=1;jettySize=auto;orthogonalLoop=1;fontSize=11;endArrow=block;endFill=0;endSize=8;strokeWidth=1;shadow=0;labelBackgroundColor=none;edgeStyle=orthogonalEdgeStyle;" parent="WIyWlLk6GJQsqaUBKTNV-1" source="l1NlXtUrIdAd-0wigVET-26" target="l1NlXtUrIdAd-0wigVET-29" edge="1">
          <mxGeometry x="-0.1995" y="10" relative="1" as="geometry">
            <mxPoint as="offset" />
          </mxGeometry>
        </mxCell>
        <mxCell id="l1NlXtUrIdAd-0wigVET-26" value="&lt;font style=&quot;font-size: 11px;&quot;&gt;is your &lt;br&gt;email already &lt;br&gt;registered?&lt;/font&gt;" style="rhombus;whiteSpace=wrap;html=1;shadow=0;fontFamily=Helvetica;fontSize=12;align=center;strokeWidth=1;spacing=6;spacingTop=-4;" parent="WIyWlLk6GJQsqaUBKTNV-1" vertex="1">
          <mxGeometry x="423.75" y="530" width="102.5" height="90" as="geometry" />
        </mxCell>
        <mxCell id="l1NlXtUrIdAd-0wigVET-29" value="&lt;font style=&quot;font-size: 11px;&quot;&gt;&lt;br&gt;Is password1 &amp;amp; password2 the same?&lt;/font&gt;" style="rhombus;whiteSpace=wrap;html=1;shadow=0;fontFamily=Helvetica;fontSize=12;align=center;strokeWidth=1;spacing=6;spacingTop=-4;" parent="WIyWlLk6GJQsqaUBKTNV-1" vertex="1">
          <mxGeometry x="420" y="670" width="110" height="90" as="geometry" />
        </mxCell>
        <mxCell id="l1NlXtUrIdAd-0wigVET-32" value="" style="rounded=0;html=1;jettySize=auto;orthogonalLoop=1;fontSize=11;endArrow=block;endFill=0;endSize=8;strokeWidth=1;shadow=0;labelBackgroundColor=none;edgeStyle=orthogonalEdgeStyle;exitX=0.5;exitY=1;exitDx=0;exitDy=0;entryX=0.5;entryY=0;entryDx=0;entryDy=0;" parent="WIyWlLk6GJQsqaUBKTNV-1" source="l1NlXtUrIdAd-0wigVET-13" target="l1NlXtUrIdAd-0wigVET-26" edge="1">
          <mxGeometry relative="1" as="geometry">
            <mxPoint x="539.8000000000001" y="482.4599999999999" as="sourcePoint" />
            <mxPoint x="539.7553846153847" y="530.0023076923077" as="targetPoint" />
            <Array as="points">
              <mxPoint x="475" y="530" />
            </Array>
          </mxGeometry>
        </mxCell>
        <mxCell id="l1NlXtUrIdAd-0wigVET-33" value="Show result &quot;Account already registered, please login&quot;" style="shape=parallelogram;perimeter=parallelogramPerimeter;whiteSpace=wrap;html=1;fixedSize=1;" parent="WIyWlLk6GJQsqaUBKTNV-1" vertex="1">
          <mxGeometry x="645" y="552.5" width="200" height="45" as="geometry" />
        </mxCell>
        <mxCell id="l1NlXtUrIdAd-0wigVET-34" value="Yes" style="edgeStyle=orthogonalEdgeStyle;rounded=0;html=1;jettySize=auto;orthogonalLoop=1;fontSize=11;endArrow=block;endFill=0;endSize=8;strokeWidth=1;shadow=0;labelBackgroundColor=none;entryX=0;entryY=0.5;entryDx=0;entryDy=0;exitX=1;exitY=0.5;exitDx=0;exitDy=0;" parent="WIyWlLk6GJQsqaUBKTNV-1" source="l1NlXtUrIdAd-0wigVET-29" target="l1NlXtUrIdAd-0wigVET-36" edge="1">
          <mxGeometry x="-0.0373" y="5" relative="1" as="geometry">
            <mxPoint as="offset" />
            <mxPoint x="595" y="714.49" as="sourcePoint" />
            <mxPoint x="733.86" y="749.49" as="targetPoint" />
          </mxGeometry>
        </mxCell>
        <mxCell id="l1NlXtUrIdAd-0wigVET-36" value="Show result &quot;You have successfully registered&quot;" style="shape=parallelogram;perimeter=parallelogramPerimeter;whiteSpace=wrap;html=1;fixedSize=1;" parent="WIyWlLk6GJQsqaUBKTNV-1" vertex="1">
          <mxGeometry x="610" y="695" width="230" height="40" as="geometry" />
        </mxCell>
        <mxCell id="l1NlXtUrIdAd-0wigVET-37" value="Show result &quot;Password 1 &amp;amp; Password 2 must be the same&quot;" style="shape=parallelogram;perimeter=parallelogramPerimeter;whiteSpace=wrap;html=1;fixedSize=1;" parent="WIyWlLk6GJQsqaUBKTNV-1" vertex="1">
          <mxGeometry x="375" y="810" width="200" height="50" as="geometry" />
        </mxCell>
        <mxCell id="l1NlXtUrIdAd-0wigVET-39" value="" style="rounded=0;html=1;jettySize=auto;orthogonalLoop=1;fontSize=11;endArrow=block;endFill=0;endSize=8;strokeWidth=1;shadow=0;labelBackgroundColor=none;edgeStyle=orthogonalEdgeStyle;exitX=0.5;exitY=1;exitDx=0;exitDy=0;entryX=0.5;entryY=0;entryDx=0;entryDy=0;" parent="WIyWlLk6GJQsqaUBKTNV-1" source="l1NlXtUrIdAd-0wigVET-37" target="l1NlXtUrIdAd-0wigVET-40" edge="1">
          <mxGeometry relative="1" as="geometry">
            <mxPoint x="540" y="870" as="sourcePoint" />
            <mxPoint x="540" y="900" as="targetPoint" />
            <Array as="points">
              <mxPoint x="475" y="880" />
              <mxPoint x="475" y="880" />
            </Array>
          </mxGeometry>
        </mxCell>
        <mxCell id="l1NlXtUrIdAd-0wigVET-40" value="&lt;font style=&quot;font-size: 11px;&quot;&gt;Do users want&lt;br&gt;&amp;nbsp;to do it again?&lt;/font&gt;" style="rhombus;whiteSpace=wrap;html=1;" parent="WIyWlLk6GJQsqaUBKTNV-1" vertex="1">
          <mxGeometry x="425" y="900" width="100" height="90" as="geometry" />
        </mxCell>
        <mxCell id="l1NlXtUrIdAd-0wigVET-41" value="Yes" style="edgeStyle=orthogonalEdgeStyle;rounded=0;html=1;jettySize=auto;orthogonalLoop=1;fontSize=11;endArrow=block;endFill=0;endSize=8;strokeWidth=1;shadow=0;labelBackgroundColor=none;exitX=0;exitY=0.5;exitDx=0;exitDy=0;" parent="WIyWlLk6GJQsqaUBKTNV-1" source="l1NlXtUrIdAd-0wigVET-40" target="l1NlXtUrIdAd-0wigVET-13" edge="1">
          <mxGeometry x="-0.8653" y="-5" relative="1" as="geometry">
            <mxPoint as="offset" />
            <mxPoint x="413.9" y="878.72" as="sourcePoint" />
            <mxPoint x="390.02" y="380" as="targetPoint" />
            <Array as="points">
              <mxPoint x="330" y="945" />
              <mxPoint x="330" y="450" />
            </Array>
          </mxGeometry>
        </mxCell>
        <mxCell id="l1NlXtUrIdAd-0wigVET-44" value="is your email registered?" style="rhombus;whiteSpace=wrap;html=1;shadow=0;fontFamily=Helvetica;fontSize=12;align=center;strokeWidth=1;spacing=6;spacingTop=-4;" parent="WIyWlLk6GJQsqaUBKTNV-1" vertex="1">
          <mxGeometry x="-232.5" y="726.25" width="105" height="90" as="geometry" />
        </mxCell>
        <mxCell id="l1NlXtUrIdAd-0wigVET-45" value="No" style="edgeStyle=orthogonalEdgeStyle;rounded=0;html=1;jettySize=auto;orthogonalLoop=1;fontSize=11;endArrow=block;endFill=0;endSize=8;strokeWidth=1;shadow=0;labelBackgroundColor=none;entryX=0;entryY=0.5;entryDx=0;entryDy=0;exitX=1;exitY=0.5;exitDx=0;exitDy=0;" parent="WIyWlLk6GJQsqaUBKTNV-1" source="l1NlXtUrIdAd-0wigVET-44" target="l1NlXtUrIdAd-0wigVET-49" edge="1">
          <mxGeometry y="10" relative="1" as="geometry">
            <mxPoint as="offset" />
            <mxPoint x="-125" y="700" as="sourcePoint" />
            <mxPoint x="13.860000000000014" y="735" as="targetPoint" />
          </mxGeometry>
        </mxCell>
        <mxCell id="l1NlXtUrIdAd-0wigVET-46" value="" style="rounded=0;html=1;jettySize=auto;orthogonalLoop=1;fontSize=11;endArrow=block;endFill=0;endSize=8;strokeWidth=1;shadow=0;labelBackgroundColor=none;edgeStyle=orthogonalEdgeStyle;" parent="WIyWlLk6GJQsqaUBKTNV-1" edge="1">
          <mxGeometry relative="1" as="geometry">
            <mxPoint x="-180" y="580" as="sourcePoint" />
            <mxPoint x="-179.47" y="620" as="targetPoint" />
            <Array as="points">
              <mxPoint x="-180" y="602.5" />
              <mxPoint x="-180" y="602.5" />
            </Array>
          </mxGeometry>
        </mxCell>
        <mxCell id="l1NlXtUrIdAd-0wigVET-47" value="" style="edgeStyle=orthogonalEdgeStyle;rounded=0;html=1;jettySize=auto;orthogonalLoop=1;fontSize=11;endArrow=block;endFill=0;endSize=8;strokeWidth=1;shadow=0;labelBackgroundColor=none;" parent="WIyWlLk6GJQsqaUBKTNV-1" target="l1NlXtUrIdAd-0wigVET-42" edge="1">
          <mxGeometry y="10" relative="1" as="geometry">
            <mxPoint as="offset" />
            <mxPoint x="170.00000000000045" y="519.9999999999999" as="sourcePoint" />
            <mxPoint x="-10" y="630" as="targetPoint" />
            <Array as="points">
              <mxPoint x="170" y="521" />
              <mxPoint x="-180" y="521" />
              <mxPoint x="-180" y="595" />
            </Array>
          </mxGeometry>
        </mxCell>
        <mxCell id="l1NlXtUrIdAd-0wigVET-42" value="display forgot password button&lt;br&gt;Input email &amp;amp; password" style="shape=parallelogram;perimeter=parallelogramPerimeter;whiteSpace=wrap;html=1;fixedSize=1;" parent="WIyWlLk6GJQsqaUBKTNV-1" vertex="1">
          <mxGeometry x="-285" y="557.5" width="210" height="40" as="geometry" />
        </mxCell>
        <mxCell id="l1NlXtUrIdAd-0wigVET-48" value="show invalid email/password" style="shape=parallelogram;perimeter=parallelogramPerimeter;whiteSpace=wrap;html=1;fixedSize=1;" parent="WIyWlLk6GJQsqaUBKTNV-1" vertex="1">
          <mxGeometry x="-60" y="870" width="130" height="45" as="geometry" />
        </mxCell>
        <mxCell id="l1NlXtUrIdAd-0wigVET-49" value="show result &quot;not registered&quot;" style="shape=parallelogram;perimeter=parallelogramPerimeter;whiteSpace=wrap;html=1;fixedSize=1;" parent="WIyWlLk6GJQsqaUBKTNV-1" vertex="1">
          <mxGeometry x="-50" y="750" width="130" height="42.5" as="geometry" />
        </mxCell>
        <mxCell id="l1NlXtUrIdAd-0wigVET-50" value="&lt;font style=&quot;font-size: 10px;&quot;&gt;Is your email &lt;br&gt;&amp;amp; password &lt;br&gt;correct?&lt;/font&gt;" style="rhombus;whiteSpace=wrap;html=1;" parent="WIyWlLk6GJQsqaUBKTNV-1" vertex="1">
          <mxGeometry x="-235" y="850" width="110" height="90" as="geometry" />
        </mxCell>
        <mxCell id="l1NlXtUrIdAd-0wigVET-53" value="Yes" style="edgeStyle=orthogonalEdgeStyle;rounded=0;html=1;jettySize=auto;orthogonalLoop=1;fontSize=11;endArrow=block;endFill=0;endSize=8;strokeWidth=1;shadow=0;labelBackgroundColor=none;exitX=0.5;exitY=1;exitDx=0;exitDy=0;entryX=0.5;entryY=0;entryDx=0;entryDy=0;" parent="WIyWlLk6GJQsqaUBKTNV-1" source="l1NlXtUrIdAd-0wigVET-44" target="l1NlXtUrIdAd-0wigVET-50" edge="1">
          <mxGeometry y="10" relative="1" as="geometry">
            <mxPoint as="offset" />
            <mxPoint x="-245" y="810" as="sourcePoint" />
            <mxPoint x="-180" y="800" as="targetPoint" />
          </mxGeometry>
        </mxCell>
        <mxCell id="l1NlXtUrIdAd-0wigVET-54" value="No" style="edgeStyle=orthogonalEdgeStyle;rounded=0;html=1;jettySize=auto;orthogonalLoop=1;fontSize=11;endArrow=block;endFill=0;endSize=8;strokeWidth=1;shadow=0;labelBackgroundColor=none;entryX=0;entryY=0.5;entryDx=0;entryDy=0;exitX=1;exitY=0.5;exitDx=0;exitDy=0;" parent="WIyWlLk6GJQsqaUBKTNV-1" source="l1NlXtUrIdAd-0wigVET-50" target="l1NlXtUrIdAd-0wigVET-48" edge="1">
          <mxGeometry y="10" relative="1" as="geometry">
            <mxPoint as="offset" />
            <mxPoint x="-127.5" y="814.47" as="sourcePoint" />
            <mxPoint x="-32.5" y="814.47" as="targetPoint" />
            <Array as="points">
              <mxPoint x="-125" y="893" />
            </Array>
          </mxGeometry>
        </mxCell>
        <mxCell id="l1NlXtUrIdAd-0wigVET-60" value="" style="edgeStyle=orthogonalEdgeStyle;rounded=0;html=1;jettySize=auto;orthogonalLoop=1;fontSize=11;endArrow=block;endFill=0;endSize=8;strokeWidth=1;shadow=0;labelBackgroundColor=none;exitX=0.5;exitY=1;exitDx=0;exitDy=0;entryX=0.5;entryY=0;entryDx=0;entryDy=0;" parent="WIyWlLk6GJQsqaUBKTNV-1" source="l1NlXtUrIdAd-0wigVET-50" target="l1NlXtUrIdAd-0wigVET-55" edge="1">
          <mxGeometry y="10" relative="1" as="geometry">
            <mxPoint as="offset" />
            <mxPoint x="-180.37" y="900" as="sourcePoint" />
            <mxPoint x="-180.37" y="960" as="targetPoint" />
          </mxGeometry>
        </mxCell>
        <mxCell id="l1NlXtUrIdAd-0wigVET-55" value="show result &quot;you have successfully logged in&quot;" style="shape=parallelogram;perimeter=parallelogramPerimeter;whiteSpace=wrap;html=1;fixedSize=1;" parent="WIyWlLk6GJQsqaUBKTNV-1" vertex="1">
          <mxGeometry x="-262.5" y="970" width="165" height="60" as="geometry" />
        </mxCell>
        <mxCell id="l1NlXtUrIdAd-0wigVET-61" value="Yes" style="text;html=1;align=center;verticalAlign=middle;resizable=0;points=[];autosize=1;strokeColor=none;fillColor=none;" parent="WIyWlLk6GJQsqaUBKTNV-1" vertex="1">
          <mxGeometry x="-180" y="930" width="40" height="30" as="geometry" />
        </mxCell>
        <mxCell id="l1NlXtUrIdAd-0wigVET-62" value="" style="endArrow=none;html=1;rounded=0;entryX=1;entryY=0.5;entryDx=0;entryDy=0;" parent="WIyWlLk6GJQsqaUBKTNV-1" target="l1NlXtUrIdAd-0wigVET-49" edge="1">
          <mxGeometry width="50" height="50" relative="1" as="geometry">
            <mxPoint x="120" y="1050" as="sourcePoint" />
            <mxPoint x="190" y="890" as="targetPoint" />
            <Array as="points">
              <mxPoint x="120" y="771" />
            </Array>
          </mxGeometry>
        </mxCell>
        <mxCell id="l1NlXtUrIdAd-0wigVET-63" value="" style="endArrow=none;html=1;rounded=0;exitX=1;exitY=0.5;exitDx=0;exitDy=0;" parent="WIyWlLk6GJQsqaUBKTNV-1" source="l1NlXtUrIdAd-0wigVET-48" edge="1">
          <mxGeometry width="50" height="50" relative="1" as="geometry">
            <mxPoint x="70" y="850" as="sourcePoint" />
            <mxPoint x="120" y="893" as="targetPoint" />
            <Array as="points" />
          </mxGeometry>
        </mxCell>
        <mxCell id="l1NlXtUrIdAd-0wigVET-64" value="" style="endArrow=none;html=1;rounded=0;entryX=0.5;entryY=1;entryDx=0;entryDy=0;exitX=0;exitY=0.5;exitDx=0;exitDy=0;" parent="WIyWlLk6GJQsqaUBKTNV-1" source="l1NlXtUrIdAd-0wigVET-66" target="l1NlXtUrIdAd-0wigVET-55" edge="1">
          <mxGeometry width="50" height="50" relative="1" as="geometry">
            <mxPoint x="-180" y="1040" as="sourcePoint" />
            <mxPoint x="-160" y="980" as="targetPoint" />
            <Array as="points">
              <mxPoint x="-180" y="1050" />
            </Array>
          </mxGeometry>
        </mxCell>
        <mxCell id="l1NlXtUrIdAd-0wigVET-66" value="" style="triangle;whiteSpace=wrap;html=1;" parent="WIyWlLk6GJQsqaUBKTNV-1" vertex="1">
          <mxGeometry x="150" y="1045" width="10" height="10" as="geometry" />
        </mxCell>
        <mxCell id="l1NlXtUrIdAd-0wigVET-71" value="" style="endArrow=none;html=1;rounded=0;exitX=1;exitY=0.5;exitDx=0;exitDy=0;entryX=1;entryY=0.5;entryDx=0;entryDy=0;" parent="WIyWlLk6GJQsqaUBKTNV-1" source="l1NlXtUrIdAd-0wigVET-77" target="WIyWlLk6GJQsqaUBKTNV-11" edge="1">
          <mxGeometry width="50" height="50" relative="1" as="geometry">
            <mxPoint x="960" y="610" as="sourcePoint" />
            <mxPoint x="370" y="1050" as="targetPoint" />
            <Array as="points" />
          </mxGeometry>
        </mxCell>
        <mxCell id="l1NlXtUrIdAd-0wigVET-78" value="" style="endArrow=none;html=1;rounded=0;exitX=1;exitY=0.5;exitDx=0;exitDy=0;entryX=0;entryY=0.5;entryDx=0;entryDy=0;entryPerimeter=0;" parent="WIyWlLk6GJQsqaUBKTNV-1" target="l1NlXtUrIdAd-0wigVET-77" edge="1">
          <mxGeometry width="50" height="50" relative="1" as="geometry">
            <mxPoint x="820" y="570" as="sourcePoint" />
            <mxPoint x="290" y="1052.5" as="targetPoint" />
            <Array as="points">
              <mxPoint x="880" y="570" />
              <mxPoint x="880" y="1050" />
            </Array>
          </mxGeometry>
        </mxCell>
        <mxCell id="l1NlXtUrIdAd-0wigVET-77" value="" style="triangle;whiteSpace=wrap;html=1;rotation=-180;" parent="WIyWlLk6GJQsqaUBKTNV-1" vertex="1">
          <mxGeometry x="280" y="1045" width="10" height="10" as="geometry" />
        </mxCell>
        <mxCell id="l1NlXtUrIdAd-0wigVET-79" value="" style="endArrow=none;html=1;rounded=0;entryX=0.5;entryY=1;entryDx=0;entryDy=0;" parent="WIyWlLk6GJQsqaUBKTNV-1" target="l1NlXtUrIdAd-0wigVET-40" edge="1">
          <mxGeometry width="50" height="50" relative="1" as="geometry">
            <mxPoint x="475" y="1050" as="sourcePoint" />
            <mxPoint x="565" y="990" as="targetPoint" />
          </mxGeometry>
        </mxCell>
        <mxCell id="l1NlXtUrIdAd-0wigVET-80" value="" style="endArrow=none;html=1;rounded=0;exitX=1;exitY=0.5;exitDx=0;exitDy=0;" parent="WIyWlLk6GJQsqaUBKTNV-1" source="l1NlXtUrIdAd-0wigVET-36" edge="1">
          <mxGeometry width="50" height="50" relative="1" as="geometry">
            <mxPoint x="960" y="756.25" as="sourcePoint" />
            <mxPoint x="880" y="715" as="targetPoint" />
            <Array as="points" />
          </mxGeometry>
        </mxCell>
        <mxCell id="l1NlXtUrIdAd-0wigVET-82" value="Yes" style="edgeStyle=orthogonalEdgeStyle;rounded=0;html=1;jettySize=auto;orthogonalLoop=1;fontSize=11;endArrow=block;endFill=0;endSize=8;strokeWidth=1;shadow=0;labelBackgroundColor=none;entryX=0;entryY=0.5;entryDx=0;entryDy=0;exitX=1;exitY=0.5;exitDx=0;exitDy=0;" parent="WIyWlLk6GJQsqaUBKTNV-1" source="l1NlXtUrIdAd-0wigVET-26" target="l1NlXtUrIdAd-0wigVET-33" edge="1">
          <mxGeometry x="-0.0667" y="5" relative="1" as="geometry">
            <mxPoint as="offset" />
            <mxPoint x="595" y="574.5" as="sourcePoint" />
            <mxPoint x="730" y="575.01" as="targetPoint" />
          </mxGeometry>
        </mxCell>
        <mxCell id="l1NlXtUrIdAd-0wigVET-85" value="No" style="text;html=1;align=center;verticalAlign=middle;resizable=0;points=[];autosize=1;strokeColor=none;fillColor=none;opacity=80;" parent="WIyWlLk6GJQsqaUBKTNV-1" vertex="1">
          <mxGeometry x="466" y="1000" width="40" height="30" as="geometry" />
        </mxCell>
        <mxCell id="l1NlXtUrIdAd-0wigVET-88" value="No" style="rounded=0;html=1;jettySize=auto;orthogonalLoop=1;fontSize=11;endArrow=block;endFill=0;endSize=8;strokeWidth=1;shadow=0;labelBackgroundColor=none;edgeStyle=orthogonalEdgeStyle;" parent="WIyWlLk6GJQsqaUBKTNV-1" edge="1">
          <mxGeometry x="-0.1995" y="10" relative="1" as="geometry">
            <mxPoint as="offset" />
            <mxPoint x="474.52" y="760" as="sourcePoint" />
            <mxPoint x="474.52" y="810" as="targetPoint" />
          </mxGeometry>
        </mxCell>
        <mxCell id="3e6mbjpUuEp5-3Iq5Efz-7" value="do click forgot password?" style="rhombus;whiteSpace=wrap;html=1;" parent="WIyWlLk6GJQsqaUBKTNV-1" vertex="1">
          <mxGeometry x="-240" y="620" width="120" height="60" as="geometry" />
        </mxCell>
        <mxCell id="3e6mbjpUuEp5-3Iq5Efz-9" value="" style="rounded=0;html=1;jettySize=auto;orthogonalLoop=1;fontSize=11;endArrow=block;endFill=0;endSize=8;strokeWidth=1;shadow=0;labelBackgroundColor=none;edgeStyle=orthogonalEdgeStyle;exitX=0.5;exitY=1;exitDx=0;exitDy=0;" parent="WIyWlLk6GJQsqaUBKTNV-1" source="3e6mbjpUuEp5-3Iq5Efz-7" target="l1NlXtUrIdAd-0wigVET-44" edge="1">
          <mxGeometry relative="1" as="geometry">
            <mxPoint x="-180" y="686.25" as="sourcePoint" />
            <mxPoint x="-179.47" y="726.25" as="targetPoint" />
            <Array as="points" />
          </mxGeometry>
        </mxCell>
        <mxCell id="3e6mbjpUuEp5-3Iq5Efz-12" value="No&lt;br&gt;" style="edgeLabel;html=1;align=center;verticalAlign=middle;resizable=0;points=[];" parent="3e6mbjpUuEp5-3Iq5Efz-9" vertex="1" connectable="0">
          <mxGeometry x="-0.7054" y="-1" relative="1" as="geometry">
            <mxPoint as="offset" />
          </mxGeometry>
        </mxCell>
        <mxCell id="3e6mbjpUuEp5-3Iq5Efz-15" value="Yes" style="edgeStyle=orthogonalEdgeStyle;rounded=0;html=1;jettySize=auto;orthogonalLoop=1;fontSize=11;endArrow=block;endFill=0;endSize=8;strokeWidth=1;shadow=0;labelBackgroundColor=none;" parent="WIyWlLk6GJQsqaUBKTNV-1" edge="1">
          <mxGeometry y="10" relative="1" as="geometry">
            <mxPoint as="offset" />
            <mxPoint x="-240" y="649" as="sourcePoint" />
            <mxPoint x="-370" y="649.23" as="targetPoint" />
            <Array as="points">
              <mxPoint x="-330" y="649.23" />
            </Array>
          </mxGeometry>
        </mxCell>
        <mxCell id="3e6mbjpUuEp5-3Iq5Efz-16" value="Input&lt;br&gt;Email" style="shape=parallelogram;perimeter=parallelogramPerimeter;whiteSpace=wrap;html=1;fixedSize=1;" parent="WIyWlLk6GJQsqaUBKTNV-1" vertex="1">
          <mxGeometry x="-480" y="625" width="120" height="50" as="geometry" />
        </mxCell>
        <mxCell id="3e6mbjpUuEp5-3Iq5Efz-21" value="&lt;span style=&quot;font-size: 10px;&quot;&gt;Is the email&lt;br&gt;registered?&lt;br&gt;&lt;/span&gt;" style="rhombus;whiteSpace=wrap;html=1;" parent="WIyWlLk6GJQsqaUBKTNV-1" vertex="1">
          <mxGeometry x="-650" y="605" width="110" height="90" as="geometry" />
        </mxCell>
        <mxCell id="3e6mbjpUuEp5-3Iq5Efz-27" value="" style="rounded=0;html=1;jettySize=auto;orthogonalLoop=1;fontSize=11;endArrow=block;endFill=0;endSize=8;strokeWidth=1;shadow=0;labelBackgroundColor=none;edgeStyle=orthogonalEdgeStyle;exitX=1;exitY=0.5;exitDx=0;exitDy=0;entryX=0;entryY=0.5;entryDx=0;entryDy=0;" parent="WIyWlLk6GJQsqaUBKTNV-1" source="3e6mbjpUuEp5-3Iq5Efz-21" target="3e6mbjpUuEp5-3Iq5Efz-16" edge="1">
          <mxGeometry relative="1" as="geometry">
            <mxPoint x="-510" y="629" as="sourcePoint" />
            <mxPoint x="-480" y="650" as="targetPoint" />
            <Array as="points">
              <mxPoint x="-500" y="650" />
              <mxPoint x="-500" y="650" />
            </Array>
          </mxGeometry>
        </mxCell>
        <mxCell id="3e6mbjpUuEp5-3Iq5Efz-31" value="No" style="edgeLabel;html=1;align=center;verticalAlign=middle;resizable=0;points=[];" parent="3e6mbjpUuEp5-3Iq5Efz-27" vertex="1" connectable="0">
          <mxGeometry x="-0.0898" y="-1" relative="1" as="geometry">
            <mxPoint as="offset" />
          </mxGeometry>
        </mxCell>
        <mxCell id="3e6mbjpUuEp5-3Iq5Efz-32" value="Yes" style="edgeStyle=orthogonalEdgeStyle;rounded=0;html=1;jettySize=auto;orthogonalLoop=1;fontSize=11;endArrow=block;endFill=0;endSize=8;strokeWidth=1;shadow=0;labelBackgroundColor=none;exitX=0.5;exitY=0;exitDx=0;exitDy=0;entryX=0.5;entryY=1;entryDx=0;entryDy=0;" parent="WIyWlLk6GJQsqaUBKTNV-1" source="3e6mbjpUuEp5-3Iq5Efz-21" target="3e6mbjpUuEp5-3Iq5Efz-35" edge="1">
          <mxGeometry y="10" relative="1" as="geometry">
            <mxPoint as="offset" />
            <mxPoint x="-596" y="582.9" as="sourcePoint" />
            <mxPoint x="-596" y="550" as="targetPoint" />
            <Array as="points">
              <mxPoint x="-596" y="513" />
            </Array>
          </mxGeometry>
        </mxCell>
        <mxCell id="3e6mbjpUuEp5-3Iq5Efz-35" value="&amp;nbsp; &quot;Send verification code to email&quot;" style="shape=parallelogram;perimeter=parallelogramPerimeter;whiteSpace=wrap;html=1;fixedSize=1;" parent="WIyWlLk6GJQsqaUBKTNV-1" vertex="1">
          <mxGeometry x="-660" y="470" width="130" height="42.5" as="geometry" />
        </mxCell>
        <mxCell id="3e6mbjpUuEp5-3Iq5Efz-36" value="&quot;Input verification &lt;br&gt;code&quot;" style="shape=parallelogram;perimeter=parallelogramPerimeter;whiteSpace=wrap;html=1;fixedSize=1;" parent="WIyWlLk6GJQsqaUBKTNV-1" vertex="1">
          <mxGeometry x="-660" y="368.75" width="130" height="42.5" as="geometry" />
        </mxCell>
        <mxCell id="3e6mbjpUuEp5-3Iq5Efz-37" value="" style="edgeStyle=orthogonalEdgeStyle;rounded=0;html=1;jettySize=auto;orthogonalLoop=1;fontSize=11;endArrow=block;endFill=0;endSize=8;strokeWidth=1;shadow=0;labelBackgroundColor=none;exitX=0.5;exitY=0;exitDx=0;exitDy=0;entryX=0.5;entryY=1;entryDx=0;entryDy=0;" parent="WIyWlLk6GJQsqaUBKTNV-1" source="3e6mbjpUuEp5-3Iq5Efz-35" target="3e6mbjpUuEp5-3Iq5Efz-36" edge="1">
          <mxGeometry x="-0.0117" y="10" relative="1" as="geometry">
            <mxPoint as="offset" />
            <mxPoint x="-596" y="485.4" as="sourcePoint" />
            <mxPoint x="-596" y="452.5" as="targetPoint" />
            <Array as="points">
              <mxPoint x="-596" y="411" />
            </Array>
          </mxGeometry>
        </mxCell>
        <mxCell id="3e6mbjpUuEp5-3Iq5Efz-39" value="" style="edgeStyle=orthogonalEdgeStyle;rounded=0;html=1;jettySize=auto;orthogonalLoop=1;fontSize=11;endArrow=block;endFill=0;endSize=8;strokeWidth=1;shadow=0;labelBackgroundColor=none;exitX=1;exitY=0.5;exitDx=0;exitDy=0;entryX=0;entryY=0.5;entryDx=0;entryDy=0;" parent="WIyWlLk6GJQsqaUBKTNV-1" source="3e6mbjpUuEp5-3Iq5Efz-36" target="3e6mbjpUuEp5-3Iq5Efz-40" edge="1">
          <mxGeometry x="-0.0117" y="10" relative="1" as="geometry">
            <mxPoint as="offset" />
            <mxPoint x="-510" y="430" as="sourcePoint" />
            <mxPoint x="-450" y="430" as="targetPoint" />
            <Array as="points" />
          </mxGeometry>
        </mxCell>
        <mxCell id="3e6mbjpUuEp5-3Iq5Efz-40" value="&quot;User intering verification code&quot;" style="shape=parallelogram;perimeter=parallelogramPerimeter;whiteSpace=wrap;html=1;fixedSize=1;" parent="WIyWlLk6GJQsqaUBKTNV-1" vertex="1">
          <mxGeometry x="-470" y="367.5" width="130" height="42.5" as="geometry" />
        </mxCell>
        <mxCell id="3e6mbjpUuEp5-3Iq5Efz-41" value="&lt;span style=&quot;font-size: 11px;&quot;&gt;&quot;Is the&lt;br&gt;&amp;nbsp;verification&lt;br&gt;&amp;nbsp; code correct ?&quot;&lt;/span&gt;" style="rhombus;whiteSpace=wrap;html=1;shadow=0;fontFamily=Helvetica;fontSize=12;align=center;strokeWidth=1;spacing=6;spacingTop=-4;" parent="WIyWlLk6GJQsqaUBKTNV-1" vertex="1">
          <mxGeometry x="-450" y="420" width="100" height="76.25" as="geometry" />
        </mxCell>
        <mxCell id="3e6mbjpUuEp5-3Iq5Efz-42" value="" style="rounded=0;html=1;jettySize=auto;orthogonalLoop=1;fontSize=11;endArrow=block;endFill=0;endSize=8;strokeWidth=1;shadow=0;labelBackgroundColor=none;edgeStyle=orthogonalEdgeStyle;exitX=1;exitY=0.5;exitDx=0;exitDy=0;entryX=1;entryY=0.5;entryDx=0;entryDy=0;" parent="WIyWlLk6GJQsqaUBKTNV-1" source="3e6mbjpUuEp5-3Iq5Efz-41" target="3e6mbjpUuEp5-3Iq5Efz-40" edge="1">
          <mxGeometry relative="1" as="geometry">
            <mxPoint x="-260" y="511" as="sourcePoint" />
            <mxPoint x="-320" y="430" as="targetPoint" />
            <Array as="points">
              <mxPoint x="-350" y="460" />
              <mxPoint x="-190" y="460" />
              <mxPoint x="-190" y="389" />
            </Array>
          </mxGeometry>
        </mxCell>
        <mxCell id="3e6mbjpUuEp5-3Iq5Efz-43" value="No" style="edgeLabel;html=1;align=center;verticalAlign=middle;resizable=0;points=[];" parent="3e6mbjpUuEp5-3Iq5Efz-42" vertex="1" connectable="0">
          <mxGeometry x="-0.0898" y="-1" relative="1" as="geometry">
            <mxPoint as="offset" />
          </mxGeometry>
        </mxCell>
        <mxCell id="3e6mbjpUuEp5-3Iq5Efz-45" value="&quot;Input New&lt;br&gt;Password&quot;" style="shape=parallelogram;perimeter=parallelogramPerimeter;whiteSpace=wrap;html=1;fixedSize=1;" parent="WIyWlLk6GJQsqaUBKTNV-1" vertex="1">
          <mxGeometry x="-460" y="555" width="110" height="40" as="geometry" />
        </mxCell>
        <mxCell id="3e6mbjpUuEp5-3Iq5Efz-46" value="" style="edgeStyle=orthogonalEdgeStyle;rounded=0;html=1;jettySize=auto;orthogonalLoop=1;fontSize=11;endArrow=block;endFill=0;endSize=8;strokeWidth=1;shadow=0;labelBackgroundColor=none;" parent="WIyWlLk6GJQsqaUBKTNV-1" source="3e6mbjpUuEp5-3Iq5Efz-41" edge="1">
          <mxGeometry x="-0.0117" y="10" relative="1" as="geometry">
            <mxPoint as="offset" />
            <mxPoint x="-401" y="500" as="sourcePoint" />
            <mxPoint x="-401" y="557.5" as="targetPoint" />
            <Array as="points" />
          </mxGeometry>
        </mxCell>
        <mxCell id="3e6mbjpUuEp5-3Iq5Efz-47" value="" style="edgeStyle=orthogonalEdgeStyle;rounded=0;html=1;jettySize=auto;orthogonalLoop=1;fontSize=11;endArrow=block;endFill=0;endSize=8;strokeWidth=1;shadow=0;labelBackgroundColor=none;exitX=1;exitY=0.5;exitDx=0;exitDy=0;entryX=0;entryY=0.5;entryDx=0;entryDy=0;" parent="WIyWlLk6GJQsqaUBKTNV-1" source="3e6mbjpUuEp5-3Iq5Efz-45" target="l1NlXtUrIdAd-0wigVET-42" edge="1">
          <mxGeometry x="-0.0117" y="10" relative="1" as="geometry">
            <mxPoint as="offset" />
            <mxPoint x="-350" y="576.5" as="sourcePoint" />
            <mxPoint x="-280" y="577" as="targetPoint" />
            <Array as="points">
              <mxPoint x="-360" y="578" />
            </Array>
          </mxGeometry>
        </mxCell>
        <mxCell id="CDymW4Ph1AjsVfwODwxu-6" value="No" style="rounded=0;html=1;jettySize=auto;orthogonalLoop=1;fontSize=11;endArrow=block;endFill=0;endSize=8;strokeWidth=1;shadow=0;labelBackgroundColor=none;edgeStyle=orthogonalEdgeStyle;exitX=0.5;exitY=1;exitDx=0;exitDy=0;entryX=0.5;entryY=1;entryDx=0;entryDy=0;" edge="1" parent="WIyWlLk6GJQsqaUBKTNV-1" source="WIyWlLk6GJQsqaUBKTNV-11">
          <mxGeometry x="-0.1489" y="10" relative="1" as="geometry">
            <mxPoint as="offset" />
            <mxPoint x="230" y="1110" as="sourcePoint" />
            <mxPoint x="960" y="400" as="targetPoint" />
            <Array as="points">
              <mxPoint x="220" y="1110" />
              <mxPoint x="960" y="1110" />
            </Array>
          </mxGeometry>
        </mxCell>
        <mxCell id="CDymW4Ph1AjsVfwODwxu-15" value="Homepage" style="rounded=1;whiteSpace=wrap;html=1;fontSize=16;" vertex="1" parent="WIyWlLk6GJQsqaUBKTNV-1">
          <mxGeometry x="890" y="340" width="150" height="60" as="geometry" />
        </mxCell>
        <mxCell id="CDymW4Ph1AjsVfwODwxu-23" value="" style="edgeStyle=orthogonalEdgeStyle;rounded=0;html=1;jettySize=auto;orthogonalLoop=1;fontSize=11;endArrow=block;endFill=0;endSize=8;strokeWidth=1;shadow=0;labelBackgroundColor=none;entryX=0;entryY=0.5;entryDx=0;entryDy=0;" edge="1" parent="WIyWlLk6GJQsqaUBKTNV-1" target="CDymW4Ph1AjsVfwODwxu-25">
          <mxGeometry x="-0.0667" y="5" relative="1" as="geometry">
            <mxPoint as="offset" />
            <mxPoint x="1040" y="368" as="sourcePoint" />
            <mxPoint x="1120" y="368" as="targetPoint" />
            <Array as="points">
              <mxPoint x="1040" y="369" />
              <mxPoint x="1071" y="369" />
            </Array>
          </mxGeometry>
        </mxCell>
        <mxCell id="CDymW4Ph1AjsVfwODwxu-55" style="edgeStyle=orthogonalEdgeStyle;shape=connector;rounded=0;orthogonalLoop=1;jettySize=auto;html=1;exitX=0.5;exitY=1;exitDx=0;exitDy=0;shadow=0;labelBackgroundColor=none;strokeColor=default;strokeWidth=1;align=center;verticalAlign=middle;fontFamily=Helvetica;fontSize=11;fontColor=default;endArrow=block;endFill=0;endSize=8;entryX=0.5;entryY=0;entryDx=0;entryDy=0;" edge="1" parent="WIyWlLk6GJQsqaUBKTNV-1" source="CDymW4Ph1AjsVfwODwxu-25" target="CDymW4Ph1AjsVfwODwxu-58">
          <mxGeometry relative="1" as="geometry">
            <mxPoint x="1144.93" y="452.5" as="targetPoint" />
            <mxPoint x="1144.93" y="412.5" as="sourcePoint" />
            <Array as="points" />
          </mxGeometry>
        </mxCell>
        <mxCell id="CDymW4Ph1AjsVfwODwxu-57" value="Yes" style="edgeLabel;html=1;align=center;verticalAlign=middle;resizable=0;points=[];fontSize=11;fontFamily=Helvetica;fontColor=default;" vertex="1" connectable="0" parent="CDymW4Ph1AjsVfwODwxu-55">
          <mxGeometry x="-0.3319" y="2" relative="1" as="geometry">
            <mxPoint as="offset" />
          </mxGeometry>
        </mxCell>
        <mxCell id="CDymW4Ph1AjsVfwODwxu-25" value="&lt;font style=&quot;font-size: 11px;&quot;&gt;Search Food&lt;br&gt;Recipe?&amp;nbsp;&lt;/font&gt;" style="rhombus;whiteSpace=wrap;html=1;fontSize=16;" vertex="1" parent="WIyWlLk6GJQsqaUBKTNV-1">
          <mxGeometry x="1100" y="330" width="90" height="80" as="geometry" />
        </mxCell>
        <mxCell id="CDymW4Ph1AjsVfwODwxu-28" value="" style="edgeStyle=orthogonalEdgeStyle;rounded=0;html=1;jettySize=auto;orthogonalLoop=1;fontSize=11;endArrow=block;endFill=0;endSize=8;strokeWidth=1;shadow=0;labelBackgroundColor=none;entryX=0;entryY=0.5;entryDx=0;entryDy=0;" edge="1" parent="WIyWlLk6GJQsqaUBKTNV-1" target="CDymW4Ph1AjsVfwODwxu-29">
          <mxGeometry x="-0.0667" y="5" relative="1" as="geometry">
            <mxPoint as="offset" />
            <mxPoint x="1190" y="369.75" as="sourcePoint" />
            <mxPoint x="1250" y="370.25" as="targetPoint" />
            <Array as="points" />
          </mxGeometry>
        </mxCell>
        <mxCell id="CDymW4Ph1AjsVfwODwxu-50" value="No" style="edgeLabel;html=1;align=center;verticalAlign=middle;resizable=0;points=[];fontSize=11;fontFamily=Helvetica;fontColor=default;" vertex="1" connectable="0" parent="CDymW4Ph1AjsVfwODwxu-28">
          <mxGeometry x="-0.1146" y="-1" relative="1" as="geometry">
            <mxPoint as="offset" />
          </mxGeometry>
        </mxCell>
        <mxCell id="CDymW4Ph1AjsVfwODwxu-29" value="&lt;span style=&quot;font-size: 11px;&quot;&gt;View popular&lt;br&gt;food recipes&lt;br&gt;&lt;/span&gt;" style="rhombus;whiteSpace=wrap;html=1;fontSize=16;" vertex="1" parent="WIyWlLk6GJQsqaUBKTNV-1">
          <mxGeometry x="1250" y="330" width="90" height="80" as="geometry" />
        </mxCell>
        <mxCell id="CDymW4Ph1AjsVfwODwxu-41" value="" style="edgeStyle=orthogonalEdgeStyle;rounded=0;html=1;jettySize=auto;orthogonalLoop=1;fontSize=11;endArrow=block;endFill=0;endSize=8;strokeWidth=1;shadow=0;labelBackgroundColor=none;entryX=0;entryY=0.5;entryDx=0;entryDy=0;" edge="1" target="CDymW4Ph1AjsVfwODwxu-42" parent="WIyWlLk6GJQsqaUBKTNV-1">
          <mxGeometry x="-0.0667" y="5" relative="1" as="geometry">
            <mxPoint as="offset" />
            <mxPoint x="1340" y="368" as="sourcePoint" />
            <mxPoint x="1420" y="368" as="targetPoint" />
            <Array as="points">
              <mxPoint x="1340" y="369" />
              <mxPoint x="1371" y="369" />
            </Array>
          </mxGeometry>
        </mxCell>
        <mxCell id="CDymW4Ph1AjsVfwODwxu-51" value="No" style="edgeLabel;html=1;align=center;verticalAlign=middle;resizable=0;points=[];fontSize=11;fontFamily=Helvetica;fontColor=default;" vertex="1" connectable="0" parent="CDymW4Ph1AjsVfwODwxu-41">
          <mxGeometry x="-0.0711" y="-1" relative="1" as="geometry">
            <mxPoint as="offset" />
          </mxGeometry>
        </mxCell>
        <mxCell id="CDymW4Ph1AjsVfwODwxu-42" value="&lt;span style=&quot;font-size: 11px;&quot;&gt;Add recipe?&lt;/span&gt;" style="rhombus;whiteSpace=wrap;html=1;fontSize=16;" vertex="1" parent="WIyWlLk6GJQsqaUBKTNV-1">
          <mxGeometry x="1400" y="330" width="90" height="80" as="geometry" />
        </mxCell>
        <mxCell id="CDymW4Ph1AjsVfwODwxu-43" value="" style="edgeStyle=orthogonalEdgeStyle;rounded=0;html=1;jettySize=auto;orthogonalLoop=1;fontSize=11;endArrow=block;endFill=0;endSize=8;strokeWidth=1;shadow=0;labelBackgroundColor=none;entryX=0;entryY=0.5;entryDx=0;entryDy=0;" edge="1" target="CDymW4Ph1AjsVfwODwxu-44" parent="WIyWlLk6GJQsqaUBKTNV-1">
          <mxGeometry x="-0.0667" y="5" relative="1" as="geometry">
            <mxPoint as="offset" />
            <mxPoint x="1490" y="369.75" as="sourcePoint" />
            <mxPoint x="1550" y="370.25" as="targetPoint" />
            <Array as="points" />
          </mxGeometry>
        </mxCell>
        <mxCell id="CDymW4Ph1AjsVfwODwxu-52" value="No" style="edgeLabel;html=1;align=center;verticalAlign=middle;resizable=0;points=[];fontSize=11;fontFamily=Helvetica;fontColor=default;" vertex="1" connectable="0" parent="CDymW4Ph1AjsVfwODwxu-43">
          <mxGeometry x="0.0734" relative="1" as="geometry">
            <mxPoint as="offset" />
          </mxGeometry>
        </mxCell>
        <mxCell id="CDymW4Ph1AjsVfwODwxu-49" style="edgeStyle=orthogonalEdgeStyle;shape=connector;rounded=0;orthogonalLoop=1;jettySize=auto;html=1;exitX=0.5;exitY=0;exitDx=0;exitDy=0;entryX=0.5;entryY=0;entryDx=0;entryDy=0;shadow=0;labelBackgroundColor=none;strokeColor=default;strokeWidth=1;align=center;verticalAlign=middle;fontFamily=Helvetica;fontSize=11;fontColor=default;endArrow=block;endFill=0;endSize=8;" edge="1" parent="WIyWlLk6GJQsqaUBKTNV-1" source="CDymW4Ph1AjsVfwODwxu-44" target="CDymW4Ph1AjsVfwODwxu-15">
          <mxGeometry relative="1" as="geometry" />
        </mxCell>
        <mxCell id="CDymW4Ph1AjsVfwODwxu-53" value="No" style="edgeLabel;html=1;align=center;verticalAlign=middle;resizable=0;points=[];fontSize=11;fontFamily=Helvetica;fontColor=default;" vertex="1" connectable="0" parent="CDymW4Ph1AjsVfwODwxu-49">
          <mxGeometry x="-0.9779" y="-3" relative="1" as="geometry">
            <mxPoint as="offset" />
          </mxGeometry>
        </mxCell>
        <mxCell id="CDymW4Ph1AjsVfwODwxu-44" value="&lt;span style=&quot;font-size: 11px;&quot;&gt;View Profile&lt;br&gt;&lt;/span&gt;" style="rhombus;whiteSpace=wrap;html=1;fontSize=16;" vertex="1" parent="WIyWlLk6GJQsqaUBKTNV-1">
          <mxGeometry x="1550" y="330" width="90" height="80" as="geometry" />
        </mxCell>
        <mxCell id="CDymW4Ph1AjsVfwODwxu-58" value="Search for the food you want" style="rounded=1;whiteSpace=wrap;html=1;fontFamily=Helvetica;fontSize=11;fontColor=default;" vertex="1" parent="WIyWlLk6GJQsqaUBKTNV-1">
          <mxGeometry x="1085" y="452.5" width="120" height="47.5" as="geometry" />
        </mxCell>
        <mxCell id="CDymW4Ph1AjsVfwODwxu-65" style="edgeStyle=orthogonalEdgeStyle;shape=connector;rounded=0;orthogonalLoop=1;jettySize=auto;html=1;exitX=0.5;exitY=1;exitDx=0;exitDy=0;shadow=0;labelBackgroundColor=none;strokeColor=default;strokeWidth=1;align=center;verticalAlign=middle;fontFamily=Helvetica;fontSize=11;fontColor=default;endArrow=block;endFill=0;endSize=8;" edge="1" parent="WIyWlLk6GJQsqaUBKTNV-1">
          <mxGeometry relative="1" as="geometry">
            <mxPoint x="1444.69" y="453.75" as="targetPoint" />
            <mxPoint x="1444.77" y="411.25" as="sourcePoint" />
            <Array as="points" />
          </mxGeometry>
        </mxCell>
        <mxCell id="CDymW4Ph1AjsVfwODwxu-66" value="Yes" style="edgeLabel;html=1;align=center;verticalAlign=middle;resizable=0;points=[];fontSize=11;fontFamily=Helvetica;fontColor=default;" vertex="1" connectable="0" parent="CDymW4Ph1AjsVfwODwxu-65">
          <mxGeometry x="-0.3319" y="2" relative="1" as="geometry">
            <mxPoint as="offset" />
          </mxGeometry>
        </mxCell>
        <mxCell id="CDymW4Ph1AjsVfwODwxu-125" value="" style="edgeStyle=orthogonalEdgeStyle;shape=connector;rounded=0;orthogonalLoop=1;jettySize=auto;html=1;shadow=0;labelBackgroundColor=none;strokeColor=default;strokeWidth=1;align=center;verticalAlign=middle;fontFamily=Helvetica;fontSize=11;fontColor=default;endArrow=block;endFill=0;endSize=8;" edge="1" parent="WIyWlLk6GJQsqaUBKTNV-1" source="CDymW4Ph1AjsVfwODwxu-67" target="CDymW4Ph1AjsVfwODwxu-124">
          <mxGeometry relative="1" as="geometry" />
        </mxCell>
        <mxCell id="CDymW4Ph1AjsVfwODwxu-67" value="Input photo, title,&lt;br&gt;ingredients, videos" style="rounded=1;whiteSpace=wrap;html=1;fontFamily=Helvetica;fontSize=11;fontColor=default;" vertex="1" parent="WIyWlLk6GJQsqaUBKTNV-1">
          <mxGeometry x="1380" y="452.5" width="130" height="47.5" as="geometry" />
        </mxCell>
        <mxCell id="CDymW4Ph1AjsVfwODwxu-68" style="edgeStyle=orthogonalEdgeStyle;shape=connector;rounded=0;orthogonalLoop=1;jettySize=auto;html=1;exitX=0.5;exitY=1;exitDx=0;exitDy=0;shadow=0;labelBackgroundColor=none;strokeColor=default;strokeWidth=1;align=center;verticalAlign=middle;fontFamily=Helvetica;fontSize=11;fontColor=default;endArrow=block;endFill=0;endSize=8;entryX=0.525;entryY=0.01;entryDx=0;entryDy=0;entryPerimeter=0;" edge="1" parent="WIyWlLk6GJQsqaUBKTNV-1">
          <mxGeometry relative="1" as="geometry">
            <mxPoint x="1594.8999999999996" y="452.9749999999999" as="targetPoint" />
            <mxPoint x="1594.78" y="411.25" as="sourcePoint" />
            <Array as="points" />
          </mxGeometry>
        </mxCell>
        <mxCell id="CDymW4Ph1AjsVfwODwxu-69" value="Yes" style="edgeLabel;html=1;align=center;verticalAlign=middle;resizable=0;points=[];fontSize=11;fontFamily=Helvetica;fontColor=default;" vertex="1" connectable="0" parent="CDymW4Ph1AjsVfwODwxu-68">
          <mxGeometry x="-0.3319" y="2" relative="1" as="geometry">
            <mxPoint as="offset" />
          </mxGeometry>
        </mxCell>
        <mxCell id="CDymW4Ph1AjsVfwODwxu-94" style="shape=connector;rounded=0;orthogonalLoop=1;jettySize=auto;html=1;shadow=0;labelBackgroundColor=none;strokeColor=default;strokeWidth=1;align=center;verticalAlign=middle;fontFamily=Helvetica;fontSize=11;fontColor=default;endArrow=block;endFill=0;endSize=8;entryX=0.5;entryY=0;entryDx=0;entryDy=0;" edge="1" parent="WIyWlLk6GJQsqaUBKTNV-1" source="CDymW4Ph1AjsVfwODwxu-82" target="CDymW4Ph1AjsVfwODwxu-96">
          <mxGeometry relative="1" as="geometry">
            <mxPoint x="1240" y="690.5797278362771" as="targetPoint" />
          </mxGeometry>
        </mxCell>
        <mxCell id="CDymW4Ph1AjsVfwODwxu-82" value="Select the recipe that&lt;br&gt;you want" style="rounded=1;whiteSpace=wrap;html=1;fontFamily=Helvetica;fontSize=11;fontColor=default;" vertex="1" parent="WIyWlLk6GJQsqaUBKTNV-1">
          <mxGeometry x="1235" y="452.5" width="120" height="47.5" as="geometry" />
        </mxCell>
        <mxCell id="CDymW4Ph1AjsVfwODwxu-83" style="edgeStyle=orthogonalEdgeStyle;shape=connector;rounded=0;orthogonalLoop=1;jettySize=auto;html=1;exitX=0.5;exitY=1;exitDx=0;exitDy=0;shadow=0;labelBackgroundColor=none;strokeColor=default;strokeWidth=1;align=center;verticalAlign=middle;fontFamily=Helvetica;fontSize=11;fontColor=default;endArrow=block;endFill=0;endSize=8;" edge="1" parent="WIyWlLk6GJQsqaUBKTNV-1" target="CDymW4Ph1AjsVfwODwxu-82">
          <mxGeometry relative="1" as="geometry">
            <mxPoint x="1294.7" y="452.5" as="targetPoint" />
            <mxPoint x="1294.77" y="410" as="sourcePoint" />
            <Array as="points" />
          </mxGeometry>
        </mxCell>
        <mxCell id="CDymW4Ph1AjsVfwODwxu-84" value="Yes" style="edgeLabel;html=1;align=center;verticalAlign=middle;resizable=0;points=[];fontSize=11;fontFamily=Helvetica;fontColor=default;" vertex="1" connectable="0" parent="CDymW4Ph1AjsVfwODwxu-83">
          <mxGeometry x="-0.3319" y="2" relative="1" as="geometry">
            <mxPoint as="offset" />
          </mxGeometry>
        </mxCell>
        <mxCell id="CDymW4Ph1AjsVfwODwxu-91" style="edgeStyle=orthogonalEdgeStyle;shape=connector;rounded=0;orthogonalLoop=1;jettySize=auto;html=1;exitX=0.5;exitY=1;exitDx=0;exitDy=0;shadow=0;labelBackgroundColor=none;strokeColor=default;strokeWidth=1;align=center;verticalAlign=middle;fontFamily=Helvetica;fontSize=11;fontColor=default;endArrow=block;endFill=0;endSize=8;entryX=0.5;entryY=0;entryDx=0;entryDy=0;" edge="1" target="CDymW4Ph1AjsVfwODwxu-93" parent="WIyWlLk6GJQsqaUBKTNV-1">
          <mxGeometry relative="1" as="geometry">
            <mxPoint x="1144.93" y="542.5" as="targetPoint" />
            <mxPoint x="1145" y="500" as="sourcePoint" />
            <Array as="points" />
          </mxGeometry>
        </mxCell>
        <mxCell id="CDymW4Ph1AjsVfwODwxu-93" value="Select the recipe that&lt;br&gt;you want" style="rounded=1;whiteSpace=wrap;html=1;fontFamily=Helvetica;fontSize=11;fontColor=default;" vertex="1" parent="WIyWlLk6GJQsqaUBKTNV-1">
          <mxGeometry x="1085" y="542.5" width="120" height="47.5" as="geometry" />
        </mxCell>
        <mxCell id="CDymW4Ph1AjsVfwODwxu-95" style="shape=connector;rounded=0;orthogonalLoop=1;jettySize=auto;html=1;exitX=0.5;exitY=1;exitDx=0;exitDy=0;shadow=0;labelBackgroundColor=none;strokeColor=default;strokeWidth=1;align=center;verticalAlign=middle;fontFamily=Helvetica;fontSize=11;fontColor=default;endArrow=block;endFill=0;endSize=8;entryX=0.439;entryY=0.028;entryDx=0;entryDy=0;entryPerimeter=0;" edge="1" parent="WIyWlLk6GJQsqaUBKTNV-1" target="CDymW4Ph1AjsVfwODwxu-96">
          <mxGeometry relative="1" as="geometry">
            <mxPoint x="1170" y="690" as="targetPoint" />
            <mxPoint x="1150" y="590" as="sourcePoint" />
          </mxGeometry>
        </mxCell>
        <mxCell id="CDymW4Ph1AjsVfwODwxu-98" style="edgeStyle=orthogonalEdgeStyle;shape=connector;rounded=0;orthogonalLoop=1;jettySize=auto;html=1;shadow=0;labelBackgroundColor=none;strokeColor=default;strokeWidth=1;align=center;verticalAlign=middle;fontFamily=Helvetica;fontSize=11;fontColor=default;endArrow=block;endFill=0;endSize=8;" edge="1" parent="WIyWlLk6GJQsqaUBKTNV-1" source="CDymW4Ph1AjsVfwODwxu-96">
          <mxGeometry relative="1" as="geometry">
            <mxPoint x="1205" y="770" as="targetPoint" />
          </mxGeometry>
        </mxCell>
        <mxCell id="CDymW4Ph1AjsVfwODwxu-96" value="Display recipe details" style="rounded=1;whiteSpace=wrap;html=1;fontFamily=Helvetica;fontSize=11;fontColor=default;" vertex="1" parent="WIyWlLk6GJQsqaUBKTNV-1">
          <mxGeometry x="1140" y="690" width="130" height="40" as="geometry" />
        </mxCell>
        <mxCell id="CDymW4Ph1AjsVfwODwxu-112" value="" style="edgeStyle=orthogonalEdgeStyle;shape=connector;rounded=0;orthogonalLoop=1;jettySize=auto;html=1;shadow=0;labelBackgroundColor=none;strokeColor=default;strokeWidth=1;align=center;verticalAlign=middle;fontFamily=Helvetica;fontSize=11;fontColor=default;endArrow=block;endFill=0;endSize=8;" edge="1" parent="WIyWlLk6GJQsqaUBKTNV-1" source="CDymW4Ph1AjsVfwODwxu-99" target="CDymW4Ph1AjsVfwODwxu-111">
          <mxGeometry relative="1" as="geometry" />
        </mxCell>
        <mxCell id="CDymW4Ph1AjsVfwODwxu-118" value="Yes" style="edgeLabel;html=1;align=center;verticalAlign=middle;resizable=0;points=[];fontSize=11;fontFamily=Helvetica;fontColor=default;" vertex="1" connectable="0" parent="CDymW4Ph1AjsVfwODwxu-112">
          <mxGeometry x="-0.3942" y="-2" relative="1" as="geometry">
            <mxPoint as="offset" />
          </mxGeometry>
        </mxCell>
        <mxCell id="CDymW4Ph1AjsVfwODwxu-99" value="See steps?" style="rhombus;whiteSpace=wrap;html=1;fontFamily=Helvetica;fontSize=11;fontColor=default;" vertex="1" parent="WIyWlLk6GJQsqaUBKTNV-1">
          <mxGeometry x="1165" y="770" width="80" height="80" as="geometry" />
        </mxCell>
        <mxCell id="CDymW4Ph1AjsVfwODwxu-101" style="edgeStyle=orthogonalEdgeStyle;shape=connector;rounded=0;orthogonalLoop=1;jettySize=auto;html=1;shadow=0;labelBackgroundColor=none;strokeColor=default;strokeWidth=1;align=center;verticalAlign=middle;fontFamily=Helvetica;fontSize=11;fontColor=default;endArrow=block;endFill=0;endSize=8;" edge="1" parent="WIyWlLk6GJQsqaUBKTNV-1">
          <mxGeometry relative="1" as="geometry">
            <mxPoint x="1205" y="890" as="targetPoint" />
            <mxPoint x="1205" y="850" as="sourcePoint" />
          </mxGeometry>
        </mxCell>
        <mxCell id="CDymW4Ph1AjsVfwODwxu-107" value="No" style="edgeLabel;html=1;align=center;verticalAlign=middle;resizable=0;points=[];fontSize=11;fontFamily=Helvetica;fontColor=default;" vertex="1" connectable="0" parent="CDymW4Ph1AjsVfwODwxu-101">
          <mxGeometry x="-0.4457" y="-1" relative="1" as="geometry">
            <mxPoint as="offset" />
          </mxGeometry>
        </mxCell>
        <mxCell id="CDymW4Ph1AjsVfwODwxu-102" value="Save this&lt;br&gt;recipe?" style="rhombus;whiteSpace=wrap;html=1;fontFamily=Helvetica;fontSize=11;fontColor=default;" vertex="1" parent="WIyWlLk6GJQsqaUBKTNV-1">
          <mxGeometry x="1165" y="890" width="80" height="80" as="geometry" />
        </mxCell>
        <mxCell id="CDymW4Ph1AjsVfwODwxu-103" style="edgeStyle=orthogonalEdgeStyle;shape=connector;rounded=0;orthogonalLoop=1;jettySize=auto;html=1;shadow=0;labelBackgroundColor=none;strokeColor=default;strokeWidth=1;align=center;verticalAlign=middle;fontFamily=Helvetica;fontSize=11;fontColor=default;endArrow=block;endFill=0;endSize=8;" edge="1" parent="WIyWlLk6GJQsqaUBKTNV-1">
          <mxGeometry relative="1" as="geometry">
            <mxPoint x="1205" y="1010" as="targetPoint" />
            <mxPoint x="1205" y="970" as="sourcePoint" />
          </mxGeometry>
        </mxCell>
        <mxCell id="CDymW4Ph1AjsVfwODwxu-108" value="No" style="edgeLabel;html=1;align=center;verticalAlign=middle;resizable=0;points=[];fontSize=11;fontFamily=Helvetica;fontColor=default;" vertex="1" connectable="0" parent="CDymW4Ph1AjsVfwODwxu-103">
          <mxGeometry x="-0.3246" y="1" relative="1" as="geometry">
            <mxPoint as="offset" />
          </mxGeometry>
        </mxCell>
        <mxCell id="CDymW4Ph1AjsVfwODwxu-121" style="edgeStyle=orthogonalEdgeStyle;shape=connector;rounded=0;orthogonalLoop=1;jettySize=auto;html=1;shadow=0;labelBackgroundColor=none;strokeColor=default;strokeWidth=1;align=center;verticalAlign=middle;fontFamily=Helvetica;fontSize=11;fontColor=default;endArrow=block;endFill=0;endSize=8;" edge="1" parent="WIyWlLk6GJQsqaUBKTNV-1">
          <mxGeometry relative="1" as="geometry">
            <mxPoint x="1270" y="710" as="targetPoint" />
            <mxPoint x="1235" y="1040" as="sourcePoint" />
            <Array as="points">
              <mxPoint x="1320" y="1040" />
              <mxPoint x="1320" y="710" />
            </Array>
          </mxGeometry>
        </mxCell>
        <mxCell id="CDymW4Ph1AjsVfwODwxu-104" value="Like this&lt;br&gt;recipe?" style="rhombus;whiteSpace=wrap;html=1;fontFamily=Helvetica;fontSize=11;fontColor=default;" vertex="1" parent="WIyWlLk6GJQsqaUBKTNV-1">
          <mxGeometry x="1165" y="1010" width="80" height="80" as="geometry" />
        </mxCell>
        <mxCell id="CDymW4Ph1AjsVfwODwxu-111" value="Play the steps video" style="rounded=1;whiteSpace=wrap;html=1;fontFamily=Helvetica;fontSize=11;fontColor=default;" vertex="1" parent="WIyWlLk6GJQsqaUBKTNV-1">
          <mxGeometry x="1000" y="786.25" width="120" height="47.5" as="geometry" />
        </mxCell>
        <mxCell id="CDymW4Ph1AjsVfwODwxu-113" value="" style="edgeStyle=orthogonalEdgeStyle;shape=connector;rounded=0;orthogonalLoop=1;jettySize=auto;html=1;shadow=0;labelBackgroundColor=none;strokeColor=default;strokeWidth=1;align=center;verticalAlign=middle;fontFamily=Helvetica;fontSize=11;fontColor=default;endArrow=block;endFill=0;endSize=8;" edge="1" target="CDymW4Ph1AjsVfwODwxu-114" parent="WIyWlLk6GJQsqaUBKTNV-1">
          <mxGeometry relative="1" as="geometry">
            <mxPoint x="1165" y="930" as="sourcePoint" />
          </mxGeometry>
        </mxCell>
        <mxCell id="CDymW4Ph1AjsVfwODwxu-119" value="Yes" style="edgeLabel;html=1;align=center;verticalAlign=middle;resizable=0;points=[];fontSize=11;fontFamily=Helvetica;fontColor=default;" vertex="1" connectable="0" parent="CDymW4Ph1AjsVfwODwxu-113">
          <mxGeometry x="-0.3048" y="-1" relative="1" as="geometry">
            <mxPoint as="offset" />
          </mxGeometry>
        </mxCell>
        <mxCell id="CDymW4Ph1AjsVfwODwxu-114" value="Save the recipe to&lt;br&gt;the &quot;Saved Recipe&quot;" style="rounded=1;whiteSpace=wrap;html=1;fontFamily=Helvetica;fontSize=11;fontColor=default;" vertex="1" parent="WIyWlLk6GJQsqaUBKTNV-1">
          <mxGeometry x="1000" y="906.25" width="120" height="47.5" as="geometry" />
        </mxCell>
        <mxCell id="CDymW4Ph1AjsVfwODwxu-116" value="" style="edgeStyle=orthogonalEdgeStyle;shape=connector;rounded=0;orthogonalLoop=1;jettySize=auto;html=1;shadow=0;labelBackgroundColor=none;strokeColor=default;strokeWidth=1;align=center;verticalAlign=middle;fontFamily=Helvetica;fontSize=11;fontColor=default;endArrow=block;endFill=0;endSize=8;" edge="1" target="CDymW4Ph1AjsVfwODwxu-117" parent="WIyWlLk6GJQsqaUBKTNV-1">
          <mxGeometry relative="1" as="geometry">
            <mxPoint x="1165" y="1050" as="sourcePoint" />
          </mxGeometry>
        </mxCell>
        <mxCell id="CDymW4Ph1AjsVfwODwxu-120" value="Yes" style="edgeLabel;html=1;align=center;verticalAlign=middle;resizable=0;points=[];fontSize=11;fontFamily=Helvetica;fontColor=default;" vertex="1" connectable="0" parent="CDymW4Ph1AjsVfwODwxu-116">
          <mxGeometry x="-0.2037" y="2" relative="1" as="geometry">
            <mxPoint as="offset" />
          </mxGeometry>
        </mxCell>
        <mxCell id="CDymW4Ph1AjsVfwODwxu-117" value="Save the recipe to&lt;br&gt;the &quot;Liked RecIpe" style="rounded=1;whiteSpace=wrap;html=1;fontFamily=Helvetica;fontSize=11;fontColor=default;" vertex="1" parent="WIyWlLk6GJQsqaUBKTNV-1">
          <mxGeometry x="1000" y="1026.25" width="120" height="47.5" as="geometry" />
        </mxCell>
        <mxCell id="CDymW4Ph1AjsVfwODwxu-124" value="Submit recipe" style="rounded=1;whiteSpace=wrap;html=1;fontFamily=Helvetica;fontSize=11;fontColor=default;" vertex="1" parent="WIyWlLk6GJQsqaUBKTNV-1">
          <mxGeometry x="1380" y="541.25" width="130" height="47.5" as="geometry" />
        </mxCell>
        <mxCell id="CDymW4Ph1AjsVfwODwxu-126" value="" style="edgeStyle=orthogonalEdgeStyle;shape=connector;rounded=0;orthogonalLoop=1;jettySize=auto;html=1;shadow=0;labelBackgroundColor=none;strokeColor=default;strokeWidth=1;align=center;verticalAlign=middle;fontFamily=Helvetica;fontSize=11;fontColor=default;endArrow=block;endFill=0;endSize=8;exitX=0.5;exitY=1;exitDx=0;exitDy=0;" edge="1" target="CDymW4Ph1AjsVfwODwxu-127" parent="WIyWlLk6GJQsqaUBKTNV-1" source="CDymW4Ph1AjsVfwODwxu-124">
          <mxGeometry relative="1" as="geometry">
            <mxPoint x="1445" y="591" as="sourcePoint" />
          </mxGeometry>
        </mxCell>
        <mxCell id="CDymW4Ph1AjsVfwODwxu-127" value="Recipe published" style="rounded=1;whiteSpace=wrap;html=1;fontFamily=Helvetica;fontSize=11;fontColor=default;" vertex="1" parent="WIyWlLk6GJQsqaUBKTNV-1">
          <mxGeometry x="1380" y="632.5" width="130" height="47.5" as="geometry" />
        </mxCell>
        <mxCell id="CDymW4Ph1AjsVfwODwxu-129" value="" style="edgeStyle=orthogonalEdgeStyle;shape=connector;rounded=0;orthogonalLoop=1;jettySize=auto;html=1;shadow=0;labelBackgroundColor=none;strokeColor=default;strokeWidth=1;align=center;verticalAlign=middle;fontFamily=Helvetica;fontSize=11;fontColor=default;endArrow=block;endFill=0;endSize=8;exitX=0.5;exitY=1;exitDx=0;exitDy=0;" edge="1" target="CDymW4Ph1AjsVfwODwxu-130" parent="WIyWlLk6GJQsqaUBKTNV-1">
          <mxGeometry relative="1" as="geometry">
            <mxPoint x="1445" y="680" as="sourcePoint" />
          </mxGeometry>
        </mxCell>
        <mxCell id="CDymW4Ph1AjsVfwODwxu-130" value="Saved the recipe to&lt;br&gt;the &quot;My Recipe&quot;" style="rounded=1;whiteSpace=wrap;html=1;fontFamily=Helvetica;fontSize=11;fontColor=default;" vertex="1" parent="WIyWlLk6GJQsqaUBKTNV-1">
          <mxGeometry x="1380" y="723.5" width="130" height="47.5" as="geometry" />
        </mxCell>
        <mxCell id="CDymW4Ph1AjsVfwODwxu-143" style="edgeStyle=orthogonalEdgeStyle;shape=connector;rounded=0;orthogonalLoop=1;jettySize=auto;html=1;shadow=0;labelBackgroundColor=none;strokeColor=default;strokeWidth=1;align=center;verticalAlign=middle;fontFamily=Helvetica;fontSize=11;fontColor=default;endArrow=block;endFill=0;endSize=8;entryX=0;entryY=0.5;entryDx=0;entryDy=0;" edge="1" parent="WIyWlLk6GJQsqaUBKTNV-1" target="CDymW4Ph1AjsVfwODwxu-145">
          <mxGeometry relative="1" as="geometry">
            <mxPoint x="1722.48" y="607.87" as="targetPoint" />
            <mxPoint x="1635" y="620" as="sourcePoint" />
            <Array as="points">
              <mxPoint x="1635" y="621" />
            </Array>
          </mxGeometry>
        </mxCell>
        <mxCell id="CDymW4Ph1AjsVfwODwxu-146" value="Yes" style="edgeLabel;html=1;align=center;verticalAlign=middle;resizable=0;points=[];fontSize=11;fontFamily=Helvetica;fontColor=default;" vertex="1" connectable="0" parent="CDymW4Ph1AjsVfwODwxu-143">
          <mxGeometry x="-0.1998" y="-1" relative="1" as="geometry">
            <mxPoint as="offset" />
          </mxGeometry>
        </mxCell>
        <mxCell id="CDymW4Ph1AjsVfwODwxu-132" value="See saved recipe?" style="rhombus;whiteSpace=wrap;html=1;fontFamily=Helvetica;fontSize=11;fontColor=default;" vertex="1" parent="WIyWlLk6GJQsqaUBKTNV-1">
          <mxGeometry x="1555" y="581.25" width="80" height="80" as="geometry" />
        </mxCell>
        <mxCell id="CDymW4Ph1AjsVfwODwxu-137" style="edgeStyle=orthogonalEdgeStyle;shape=connector;rounded=0;orthogonalLoop=1;jettySize=auto;html=1;exitX=0.5;exitY=1;exitDx=0;exitDy=0;shadow=0;labelBackgroundColor=none;strokeColor=default;strokeWidth=1;align=center;verticalAlign=middle;fontFamily=Helvetica;fontSize=11;fontColor=default;endArrow=block;endFill=0;endSize=8;entryX=0.5;entryY=0;entryDx=0;entryDy=0;" edge="1" target="CDymW4Ph1AjsVfwODwxu-139" parent="WIyWlLk6GJQsqaUBKTNV-1" source="CDymW4Ph1AjsVfwODwxu-132">
          <mxGeometry relative="1" as="geometry">
            <mxPoint x="1594.8095238095239" y="687.5" as="targetPoint" />
            <mxPoint x="1595" y="647.5" as="sourcePoint" />
          </mxGeometry>
        </mxCell>
        <mxCell id="CDymW4Ph1AjsVfwODwxu-138" value="No" style="edgeLabel;html=1;align=center;verticalAlign=middle;resizable=0;points=[];fontSize=11;fontFamily=Helvetica;fontColor=default;" vertex="1" connectable="0" parent="CDymW4Ph1AjsVfwODwxu-137">
          <mxGeometry x="-0.3236" relative="1" as="geometry">
            <mxPoint as="offset" />
          </mxGeometry>
        </mxCell>
        <mxCell id="CDymW4Ph1AjsVfwODwxu-139" value="See liked recipe?" style="rhombus;whiteSpace=wrap;html=1;fontFamily=Helvetica;fontSize=11;fontColor=default;" vertex="1" parent="WIyWlLk6GJQsqaUBKTNV-1">
          <mxGeometry x="1555" y="712.5" width="80" height="80" as="geometry" />
        </mxCell>
        <mxCell id="CDymW4Ph1AjsVfwODwxu-162" style="edgeStyle=orthogonalEdgeStyle;shape=connector;rounded=0;orthogonalLoop=1;jettySize=auto;html=1;shadow=0;labelBackgroundColor=none;strokeColor=default;strokeWidth=1;align=center;verticalAlign=middle;fontFamily=Helvetica;fontSize=11;fontColor=default;endArrow=block;endFill=0;endSize=8;entryX=-0.01;entryY=0.564;entryDx=0;entryDy=0;entryPerimeter=0;" edge="1" parent="WIyWlLk6GJQsqaUBKTNV-1" source="CDymW4Ph1AjsVfwODwxu-145" target="CDymW4Ph1AjsVfwODwxu-163">
          <mxGeometry relative="1" as="geometry">
            <mxPoint x="1890" y="621.2500000000001" as="targetPoint" />
            <Array as="points">
              <mxPoint x="1881" y="621" />
            </Array>
          </mxGeometry>
        </mxCell>
        <mxCell id="CDymW4Ph1AjsVfwODwxu-145" value="Show the list of&lt;br&gt;&quot;Saved Recipe" style="rounded=1;whiteSpace=wrap;html=1;fontFamily=Helvetica;fontSize=11;fontColor=default;" vertex="1" parent="WIyWlLk6GJQsqaUBKTNV-1">
          <mxGeometry x="1723" y="597.5" width="130" height="47.5" as="geometry" />
        </mxCell>
        <mxCell id="CDymW4Ph1AjsVfwODwxu-147" style="edgeStyle=orthogonalEdgeStyle;shape=connector;rounded=0;orthogonalLoop=1;jettySize=auto;html=1;exitX=1;exitY=0.5;exitDx=0;exitDy=0;shadow=0;labelBackgroundColor=none;strokeColor=default;strokeWidth=1;align=center;verticalAlign=middle;fontFamily=Helvetica;fontSize=11;fontColor=default;endArrow=block;endFill=0;endSize=8;entryX=0;entryY=0.5;entryDx=0;entryDy=0;" edge="1" target="CDymW4Ph1AjsVfwODwxu-149" parent="WIyWlLk6GJQsqaUBKTNV-1">
          <mxGeometry relative="1" as="geometry">
            <mxPoint x="1719.48" y="752.87" as="targetPoint" />
            <mxPoint x="1632" y="752.14" as="sourcePoint" />
            <Array as="points">
              <mxPoint x="1671" y="752" />
            </Array>
          </mxGeometry>
        </mxCell>
        <mxCell id="CDymW4Ph1AjsVfwODwxu-148" value="Yes" style="edgeLabel;html=1;align=center;verticalAlign=middle;resizable=0;points=[];fontSize=11;fontFamily=Helvetica;fontColor=default;" vertex="1" connectable="0" parent="CDymW4Ph1AjsVfwODwxu-147">
          <mxGeometry x="-0.1998" y="-1" relative="1" as="geometry">
            <mxPoint as="offset" />
          </mxGeometry>
        </mxCell>
        <mxCell id="CDymW4Ph1AjsVfwODwxu-166" style="edgeStyle=orthogonalEdgeStyle;shape=connector;rounded=0;orthogonalLoop=1;jettySize=auto;html=1;exitX=1;exitY=0.5;exitDx=0;exitDy=0;entryX=0.5;entryY=1;entryDx=0;entryDy=0;shadow=0;labelBackgroundColor=none;strokeColor=default;strokeWidth=1;align=center;verticalAlign=middle;fontFamily=Helvetica;fontSize=11;fontColor=default;endArrow=block;endFill=0;endSize=8;" edge="1" parent="WIyWlLk6GJQsqaUBKTNV-1" source="CDymW4Ph1AjsVfwODwxu-149" target="CDymW4Ph1AjsVfwODwxu-163">
          <mxGeometry relative="1" as="geometry" />
        </mxCell>
        <mxCell id="CDymW4Ph1AjsVfwODwxu-149" value="Show the list of&lt;br&gt;&quot;Liked Recipe" style="rounded=1;whiteSpace=wrap;html=1;fontFamily=Helvetica;fontSize=11;fontColor=default;" vertex="1" parent="WIyWlLk6GJQsqaUBKTNV-1">
          <mxGeometry x="1720" y="728.75" width="130" height="47.5" as="geometry" />
        </mxCell>
        <mxCell id="CDymW4Ph1AjsVfwODwxu-154" value="See my &lt;br&gt;recipe?" style="rhombus;whiteSpace=wrap;html=1;fontFamily=Helvetica;fontSize=11;fontColor=default;" vertex="1" parent="WIyWlLk6GJQsqaUBKTNV-1">
          <mxGeometry x="1555" y="452.5" width="80" height="80" as="geometry" />
        </mxCell>
        <mxCell id="CDymW4Ph1AjsVfwODwxu-155" style="edgeStyle=orthogonalEdgeStyle;shape=connector;rounded=0;orthogonalLoop=1;jettySize=auto;html=1;shadow=0;labelBackgroundColor=none;strokeColor=default;strokeWidth=1;align=center;verticalAlign=middle;fontFamily=Helvetica;fontSize=11;fontColor=default;endArrow=block;endFill=0;endSize=8;entryX=0;entryY=0.5;entryDx=0;entryDy=0;exitX=1;exitY=0.5;exitDx=0;exitDy=0;" edge="1" target="CDymW4Ph1AjsVfwODwxu-157" parent="WIyWlLk6GJQsqaUBKTNV-1" source="CDymW4Ph1AjsVfwODwxu-154">
          <mxGeometry relative="1" as="geometry">
            <mxPoint x="1719.48" y="492.87" as="targetPoint" />
            <mxPoint x="1640" y="493" as="sourcePoint" />
            <Array as="points" />
          </mxGeometry>
        </mxCell>
        <mxCell id="CDymW4Ph1AjsVfwODwxu-156" value="Yes" style="edgeLabel;html=1;align=center;verticalAlign=middle;resizable=0;points=[];fontSize=11;fontFamily=Helvetica;fontColor=default;" vertex="1" connectable="0" parent="CDymW4Ph1AjsVfwODwxu-155">
          <mxGeometry x="-0.1998" y="-1" relative="1" as="geometry">
            <mxPoint as="offset" />
          </mxGeometry>
        </mxCell>
        <mxCell id="CDymW4Ph1AjsVfwODwxu-160" style="edgeStyle=orthogonalEdgeStyle;shape=connector;rounded=0;orthogonalLoop=1;jettySize=auto;html=1;shadow=0;labelBackgroundColor=none;strokeColor=default;strokeWidth=1;align=center;verticalAlign=middle;fontFamily=Helvetica;fontSize=11;fontColor=default;endArrow=block;endFill=0;endSize=8;entryX=0.537;entryY=-0.005;entryDx=0;entryDy=0;entryPerimeter=0;" edge="1" parent="WIyWlLk6GJQsqaUBKTNV-1" source="CDymW4Ph1AjsVfwODwxu-157" target="CDymW4Ph1AjsVfwODwxu-163">
          <mxGeometry relative="1" as="geometry">
            <mxPoint x="1980" y="590" as="targetPoint" />
          </mxGeometry>
        </mxCell>
        <mxCell id="CDymW4Ph1AjsVfwODwxu-157" value="Show the list of&lt;br&gt;&quot;My Recipe" style="rounded=1;whiteSpace=wrap;html=1;fontFamily=Helvetica;fontSize=11;fontColor=default;" vertex="1" parent="WIyWlLk6GJQsqaUBKTNV-1">
          <mxGeometry x="1720" y="468.75" width="130" height="47.5" as="geometry" />
        </mxCell>
        <mxCell id="CDymW4Ph1AjsVfwODwxu-158" style="edgeStyle=orthogonalEdgeStyle;shape=connector;rounded=0;orthogonalLoop=1;jettySize=auto;html=1;shadow=0;labelBackgroundColor=none;strokeColor=default;strokeWidth=1;align=center;verticalAlign=middle;fontFamily=Helvetica;fontSize=11;fontColor=default;endArrow=block;endFill=0;endSize=8;entryX=0.5;entryY=0;entryDx=0;entryDy=0;exitX=0.5;exitY=1;exitDx=0;exitDy=0;" edge="1" parent="WIyWlLk6GJQsqaUBKTNV-1" source="CDymW4Ph1AjsVfwODwxu-154">
          <mxGeometry relative="1" as="geometry">
            <mxPoint x="1595.09" y="581.25" as="targetPoint" />
            <mxPoint x="1594.76" y="543.75" as="sourcePoint" />
          </mxGeometry>
        </mxCell>
        <mxCell id="CDymW4Ph1AjsVfwODwxu-159" value="No" style="edgeLabel;html=1;align=center;verticalAlign=middle;resizable=0;points=[];fontSize=11;fontFamily=Helvetica;fontColor=default;" vertex="1" connectable="0" parent="CDymW4Ph1AjsVfwODwxu-158">
          <mxGeometry x="-0.3236" relative="1" as="geometry">
            <mxPoint as="offset" />
          </mxGeometry>
        </mxCell>
        <mxCell id="CDymW4Ph1AjsVfwODwxu-163" value="Show the list of&lt;br&gt;&quot;Saved Recipe" style="rounded=1;whiteSpace=wrap;html=1;fontFamily=Helvetica;fontSize=11;fontColor=default;" vertex="1" parent="WIyWlLk6GJQsqaUBKTNV-1">
          <mxGeometry x="1910" y="595" width="130" height="47.5" as="geometry" />
        </mxCell>
      </root>
    </mxGraphModel>
  </diagram>
</mxfile>
